<?xml version="1.0" standalone="no"?>
<!DOCTYPE svg PUBLIC "-//W3C//DTD SVG 20010904//EN" "http://www.w3.org/TR/2001/REC-SVG-20010904/DTD/svg10.dtd">
<svg version="1.0" xmlns="http://www.w3.org/2000/svg"
 width="512.000000pt" height="512.000000pt" viewBox="0 0 512.000000 512.000000"
 preserveAspectRatio="xMidYMid meet">
<metadata>Gifteez Pinned Tab</metadata>
<g transform="translate(0.000000,512.000000) scale(0.100000,-0.100000)"
fill="#000000" stroke="none">
<path d="M80 2560 l0 -2320 2320 0 2320 0 0 2320 0 2320 -2320 0 -2320 0 0
-2320z m3920 1520 l0 -280 -1680 0 -1680 0 0 280 0 280 1680 0 1680 0 0 -280z
m-560 -1280 l0 -880 -1120 0 -1120 0 0 880 0 880 1120 0 1120 0 0 -880z m560
-1040 l0 -280 -1680 0 -1680 0 0 280 0 280 1680 0 1680 0 0 -280z"/>
</g>
</svg>
